<svg xmlns="http://www.w3.org/2000/svg" xmlns:xlink="http://www.w3.org/1999/xlink" version="1.1" x="0px" y="0px" viewBox="0 0 50 62.5" enable-background="new 0 0 50 50" xml:space="preserve"><g><path fill="#000000" d="M4.009,1.455h42.014l0.344,15.296h-4.104l-0.344-4.366c-0.211-2.484-0.947-4.252-2.21-5.295   c-1.265-1.041-3.292-1.562-6.084-1.562c-2.028,0-3.405,0.357-4.134,1.077c-0.727,0.716-1.09,2.212-1.09,4.489l-0.086,27.923   c0,2.219,0.368,3.688,1.104,4.406c0.737,0.719,2.178,1.076,4.32,1.076h2.984v4.045H13.278V44.5h3.472   c1.839,0,3.118-0.377,3.847-1.135c0.727-0.756,1.089-2.201,1.089-4.348V10.982c0-2.165-0.371-3.615-1.118-4.349   c-0.747-0.736-2.134-1.105-4.162-1.105c-2.793,0-4.821,0.521-6.084,1.562C9.06,8.132,8.322,9.9,8.111,12.384L7.767,16.75H3.634   L4.009,1.455z"/></g></svg>
